<mxfile host="app.diagrams.net" agent="Mozilla/5.0 (X11; Linux x86_64; rv:130.0) Gecko/20100101 Firefox/130.0" version="24.7.17">
  <diagram name="Page-1" id="xl1zmyw-4XcN1T0yQS5G">
    <mxGraphModel dx="437" dy="323" grid="1" gridSize="10" guides="1" tooltips="1" connect="1" arrows="1" fold="1" page="1" pageScale="1" pageWidth="850" pageHeight="1100" math="0" shadow="0">
      <root>
        <mxCell id="0" />
        <mxCell id="1" parent="0" />
        <mxCell id="jvnhEjSs0aemlDB3R8eL-2" value="" style="whiteSpace=wrap;html=1;" vertex="1" parent="1">
          <mxGeometry x="310" y="355" width="120" height="95" as="geometry" />
        </mxCell>
        <mxCell id="jvnhEjSs0aemlDB3R8eL-34" value="" style="whiteSpace=wrap;html=1;" vertex="1" parent="1">
          <mxGeometry x="310" y="392.5" width="120" height="20" as="geometry" />
        </mxCell>
        <mxCell id="jvnhEjSs0aemlDB3R8eL-1" value="" style="whiteSpace=wrap;html=1;" vertex="1" parent="1">
          <mxGeometry x="430" y="300" width="140" height="170" as="geometry" />
        </mxCell>
        <mxCell id="jvnhEjSs0aemlDB3R8eL-6" value="" style="endArrow=none;html=1;rounded=0;" edge="1" parent="1">
          <mxGeometry width="50" height="50" relative="1" as="geometry">
            <mxPoint x="470.02" y="413.75" as="sourcePoint" />
            <mxPoint x="499.97999999999996" y="383.75" as="targetPoint" />
          </mxGeometry>
        </mxCell>
        <mxCell id="jvnhEjSs0aemlDB3R8eL-8" value="" style="endArrow=none;html=1;rounded=0;entryX=0.435;entryY=0.118;entryDx=0;entryDy=0;entryPerimeter=0;" edge="1" parent="1">
          <mxGeometry width="50" height="50" relative="1" as="geometry">
            <mxPoint x="460" y="344.96999999999997" as="sourcePoint" />
            <mxPoint x="490.05000000000007" y="315.03" as="targetPoint" />
          </mxGeometry>
        </mxCell>
        <mxCell id="jvnhEjSs0aemlDB3R8eL-9" value="" style="rounded=0;whiteSpace=wrap;html=1;" vertex="1" parent="1">
          <mxGeometry x="570" y="311.25" width="10" height="30" as="geometry" />
        </mxCell>
        <mxCell id="jvnhEjSs0aemlDB3R8eL-11" value="" style="rounded=0;whiteSpace=wrap;html=1;fillColor=#dae8fc;strokeColor=#6c8ebf;" vertex="1" parent="1">
          <mxGeometry x="560" y="365" width="10" height="67.5" as="geometry" />
        </mxCell>
        <mxCell id="jvnhEjSs0aemlDB3R8eL-12" value="" style="shape=actor;whiteSpace=wrap;html=1;" vertex="1" parent="1">
          <mxGeometry x="240" y="372.5" width="40" height="60" as="geometry" />
        </mxCell>
        <mxCell id="jvnhEjSs0aemlDB3R8eL-19" value="" style="curved=1;endArrow=classic;html=1;rounded=0;edgeStyle=orthogonalEdgeStyle;dashed=1;" edge="1" parent="1">
          <mxGeometry width="50" height="50" relative="1" as="geometry">
            <mxPoint x="500" y="388.08000000000004" as="sourcePoint" />
            <mxPoint x="510" y="416.92" as="targetPoint" />
            <Array as="points">
              <mxPoint x="510" y="387.92" />
              <mxPoint x="510" y="416.92" />
            </Array>
          </mxGeometry>
        </mxCell>
        <mxCell id="jvnhEjSs0aemlDB3R8eL-21" value="ISP" style="rounded=0;whiteSpace=wrap;html=1;" vertex="1" parent="1">
          <mxGeometry x="500" y="440" width="30" height="22.5" as="geometry" />
        </mxCell>
        <mxCell id="jvnhEjSs0aemlDB3R8eL-22" value="SD" style="rounded=0;whiteSpace=wrap;html=1;" vertex="1" parent="1">
          <mxGeometry x="440" y="450" width="20" height="20" as="geometry" />
        </mxCell>
        <mxCell id="jvnhEjSs0aemlDB3R8eL-23" style="edgeStyle=orthogonalEdgeStyle;rounded=0;orthogonalLoop=1;jettySize=auto;html=1;exitX=0.5;exitY=1;exitDx=0;exitDy=0;entryX=1.009;entryY=0.572;entryDx=0;entryDy=0;entryPerimeter=0;startArrow=classic;startFill=1;" edge="1" parent="1" source="jvnhEjSs0aemlDB3R8eL-11" target="jvnhEjSs0aemlDB3R8eL-21">
          <mxGeometry relative="1" as="geometry" />
        </mxCell>
        <mxCell id="jvnhEjSs0aemlDB3R8eL-24" style="edgeStyle=orthogonalEdgeStyle;rounded=0;orthogonalLoop=1;jettySize=auto;html=1;entryX=0.984;entryY=0.367;entryDx=0;entryDy=0;entryPerimeter=0;" edge="1" parent="1" source="jvnhEjSs0aemlDB3R8eL-21" target="jvnhEjSs0aemlDB3R8eL-22">
          <mxGeometry relative="1" as="geometry" />
        </mxCell>
        <mxCell id="jvnhEjSs0aemlDB3R8eL-26" value="" style="rounded=0;whiteSpace=wrap;html=1;" vertex="1" parent="1">
          <mxGeometry x="540" y="290" width="20" height="10" as="geometry" />
        </mxCell>
        <mxCell id="jvnhEjSs0aemlDB3R8eL-37" value="" style="whiteSpace=wrap;html=1;strokeColor=none;" vertex="1" parent="1">
          <mxGeometry x="425" y="393" width="6" height="19" as="geometry" />
        </mxCell>
        <mxCell id="jvnhEjSs0aemlDB3R8eL-39" value="" style="whiteSpace=wrap;html=1;strokeColor=none;" vertex="1" parent="1">
          <mxGeometry x="302" y="393" width="9" height="19" as="geometry" />
        </mxCell>
        <mxCell id="jvnhEjSs0aemlDB3R8eL-42" style="edgeStyle=orthogonalEdgeStyle;rounded=0;orthogonalLoop=1;jettySize=auto;html=1;exitX=0.9;exitY=0.5;exitDx=0;exitDy=0;exitPerimeter=0;entryX=0.2;entryY=0.548;entryDx=0;entryDy=0;entryPerimeter=0;dashed=1;dashPattern=12 12;" edge="1" parent="1" source="jvnhEjSs0aemlDB3R8eL-12" target="jvnhEjSs0aemlDB3R8eL-11">
          <mxGeometry relative="1" as="geometry" />
        </mxCell>
        <mxCell id="jvnhEjSs0aemlDB3R8eL-41" style="edgeStyle=orthogonalEdgeStyle;rounded=0;orthogonalLoop=1;jettySize=auto;html=1;exitX=0.9;exitY=0.5;exitDx=0;exitDy=0;exitPerimeter=0;entryX=0;entryY=0.5;entryDx=0;entryDy=0;dashed=1;dashPattern=12 12;" edge="1" parent="1" source="jvnhEjSs0aemlDB3R8eL-12" target="jvnhEjSs0aemlDB3R8eL-9">
          <mxGeometry relative="1" as="geometry">
            <Array as="points">
              <mxPoint x="480" y="403" />
              <mxPoint x="480" y="326" />
            </Array>
          </mxGeometry>
        </mxCell>
      </root>
    </mxGraphModel>
  </diagram>
</mxfile>
